<?xml version="1.0" standalone="no"?>
<!DOCTYPE svg PUBLIC "-//W3C//DTD SVG 20010904//EN"
 "http://www.w3.org/TR/2001/REC-SVG-20010904/DTD/svg10.dtd">
<svg version="1.0" xmlns="http://www.w3.org/2000/svg"
 width="238.000000pt" height="238.000000pt" viewBox="0 0 238.000000 238.000000"
 preserveAspectRatio="xMidYMid meet">
<metadata>
Created by potrace 1.14, written by Peter Selinger 2001-2017
</metadata>
<g transform="translate(0.000000,238.000000) scale(0.100000,-0.100000)"
fill="#000000" stroke="none">
<path d="M0 1190 l0 -1190 1190 0 1190 0 0 1190 0 1190 -1190 0 -1190 0 0
-1190z m1434 1060 c92 -31 134 -59 147 -97 8 -24 23 -39 52 -54 l41 -21 -16
24 c-19 29 -50 129 -43 136 10 10 119 -73 142 -107 16 -23 23 -49 23 -80 0
-41 5 -52 39 -85 l40 -39 -15 51 c-9 29 -14 79 -12 119 l3 68 59 -84 c67 -96
75 -122 66 -206 -6 -54 -4 -65 19 -105 l26 -45 6 75 c4 41 15 92 25 113 l18
38 28 -88 c34 -109 35 -157 5 -214 -23 -43 -23 -45 -7 -94 l17 -50 7 36 c3 20
25 65 48 100 l41 64 9 -30 c5 -16 10 -68 10 -115 1 -92 -10 -126 -56 -169 -23
-21 -26 -32 -25 -85 0 -60 0 -61 17 -36 25 38 124 140 135 140 14 0 -2 -117
-25 -178 -23 -62 -66 -114 -107 -131 -23 -10 -30 -20 -34 -55 -3 -23 -9 -51
-13 -61 -6 -16 0 -13 27 10 42 37 168 119 174 114 9 -10 -70 -171 -102 -209
-35 -40 -85 -72 -133 -83 -18 -5 -34 -23 -55 -64 -41 -80 -41 -81 -14 -57 13
12 38 28 54 36 43 22 165 61 171 55 9 -9 -98 -129 -143 -161 -55 -39 -97 -54
-148 -55 -36 -1 -48 -8 -95 -56 l-55 -56 40 17 c42 18 255 36 255 21 0 -4 -34
-30 -76 -57 -115 -75 -206 -96 -279 -66 -34 14 -37 13 -118 -28 l-83 -42 89 4
c87 4 257 -21 257 -38 0 -18 -89 -46 -176 -56 -67 -7 -166 13 -219 45 -28 16
-38 17 -91 6 l-59 -13 30 -11 c101 -41 216 -96 229 -110 15 -16 10 -17 -72
-13 -107 6 -179 30 -248 82 -59 44 -102 52 -121 21 -16 -26 -98 -70 -163 -87
-30 -8 -88 -14 -130 -14 l-75 1 25 20 c37 31 128 75 196 95 l59 17 -68 14
c-67 14 -69 14 -97 -11 -46 -38 -94 -49 -179 -43 -76 6 -229 52 -201 60 60 19
183 37 248 37 l77 0 -72 40 c-71 38 -74 39 -107 25 -41 -17 -116 -19 -165 -5
-35 10 -211 120 -211 131 0 15 179 -5 249 -27 l73 -23 -58 57 c-58 56 -59 57
-120 58 -84 1 -135 33 -222 137 -38 45 -69 83 -68 84 0 0 33 -7 71 -16 73 -18
127 -42 158 -69 29 -26 27 -10 -6 52 -29 53 -37 60 -80 73 -68 20 -121 77
-172 187 -24 50 -42 92 -40 94 5 6 109 -61 159 -101 35 -29 47 -35 43 -21 -3
10 -9 36 -13 57 -5 29 -15 44 -43 61 -48 31 -66 53 -90 106 -18 42 -46 188
-38 196 8 8 80 -57 116 -102 l36 -47 3 53 c3 46 0 56 -22 74 -42 36 -56 78
-56 169 0 47 3 98 6 115 l6 31 44 -66 c24 -37 44 -75 44 -84 0 -39 19 -26 30
20 10 44 9 53 -9 90 -28 54 -26 109 8 214 l28 88 22 -58 c12 -32 25 -78 29
-102 l7 -45 20 30 c15 22 19 45 17 99 -1 47 4 84 16 113 18 44 81 131 95 132
5 0 7 -40 5 -89 l-3 -89 32 27 c20 16 31 33 28 44 -6 31 15 86 47 123 28 32
109 94 122 94 9 0 -5 -62 -24 -106 l-18 -41 31 11 c18 7 35 23 43 42 7 18 27
43 43 57 34 28 120 60 151 55 46 -7 -102 -148 -157 -148 -19 0 -103 -43 -103
-53 0 -1 31 -2 68 -3 64 0 171 -29 158 -42 -3 -3 -52 -11 -108 -18 -76 -10
-116 -11 -152 -4 -49 10 -51 10 -80 -21 -20 -21 -25 -30 -13 -26 10 4 53 10
97 13 60 5 80 4 80 -5 0 -21 -159 -89 -225 -96 -56 -7 -62 -10 -89 -47 -16
-23 -25 -39 -20 -36 80 38 107 48 144 54 l45 6 -59 -60 c-56 -58 -156 -122
-189 -122 -13 0 -30 -32 -55 -100 -3 -8 13 1 34 21 34 32 141 99 157 99 4 0
-12 -30 -35 -67 -47 -76 -107 -144 -155 -174 -36 -22 -39 -30 -47 -114 l-6
-60 23 50 c20 42 124 161 134 152 1 -2 -9 -46 -23 -98 -23 -86 -43 -124 -109
-215 -11 -15 -13 -33 -9 -67 7 -52 19 -54 28 -3 4 18 25 62 49 97 l42 63 3
-75 c5 -107 -6 -173 -38 -233 l-28 -53 21 -48 21 -48 12 74 c7 41 21 92 30
114 l16 40 24 -90 c26 -96 34 -188 21 -245 -6 -31 -3 -40 24 -70 l30 -35 -6
29 c-4 17 -3 63 1 103 l6 74 35 -57 c63 -104 84 -155 88 -207 3 -45 8 -55 36
-77 29 -22 32 -23 24 -5 -15 38 -35 119 -35 145 1 22 11 15 84 -61 51 -53 90
-105 102 -132 12 -30 27 -48 40 -51 12 -3 29 -9 38 -12 9 -3 -4 23 -30 61 -24
37 -43 69 -41 71 4 4 111 -32 142 -48 31 -16 86 -71 96 -96 7 -19 16 -22 63
-22 54 0 54 0 81 45 27 47 27 47 178 114 l48 21 -7 -22 c-11 -38 -35 -82 -57
-106 -23 -25 -22 -26 22 -11 17 6 31 16 31 23 0 31 49 98 122 168 45 43 83 77
84 75 2 -3 -32 -139 -42 -162 -7 -19 -6 -18 27 2 31 20 35 28 40 80 5 42 22
88 60 165 30 59 57 107 61 108 13 0 21 -134 10 -175 -6 -22 -10 -41 -8 -42 1
-1 14 14 30 33 26 34 27 37 16 83 -10 41 -8 68 10 172 28 156 29 159 40 139
16 -29 40 -139 40 -186 l1 -49 30 58 c30 57 30 58 11 82 -11 13 -24 43 -31 67
-10 40 -31 258 -25 267 8 10 30 -21 73 -107 l48 -96 7 53 c7 50 5 54 -28 91
-19 22 -44 57 -56 80 -23 46 -72 220 -61 220 15 0 121 -117 136 -150 l16 -35
-4 52 c-4 48 -8 56 -51 94 -26 23 -70 76 -99 118 -28 42 -60 84 -71 93 -21 17
-21 17 -1 17 28 1 94 -31 133 -63 36 -31 36 -31 22 11 -8 21 -24 36 -58 51
-26 12 -86 55 -134 95 l-88 72 40 3 c24 2 58 -5 86 -17 59 -27 59 -27 33 8
-17 24 -28 29 -48 25 -33 -6 -117 23 -200 69 -60 33 -63 36 -39 42 15 4 56 5
92 3 l66 -3 -23 22 c-20 20 -26 22 -60 12 -26 -7 -61 -7 -113 0 -41 6 -93 11
-115 11 -89 0 6 50 111 59 l75 6 -36 21 c-19 12 -51 24 -71 28 -20 3 -51 17
-69 29 -45 30 -118 127 -96 127 2 0 30 -9 61 -20z m306 -635 c0 -10 -51 -271
-56 -284 -3 -10 -16 -4 -45 25 l-39 38 -213 -212 -212 -212 -63 62 -62 63
-179 -179 -178 -178 -36 39 c-20 21 -37 41 -37 44 0 7 417 423 428 427 4 1 32
-23 62 -53 30 -30 59 -55 65 -55 5 0 83 75 172 167 l162 168 -30 30 c-35 37
-37 53 -6 60 183 46 267 62 267 50z m-100 -646 l0 -341 -22 -19 c-33 -27 -129
-85 -155 -94 l-23 -6 0 312 0 312 87 88 c48 49 93 89 100 89 10 0 13 -65 13
-341z m-230 -187 l0 -289 -42 -12 c-23 -7 -65 -15 -95 -18 l-53 -6 0 220 0
219 81 87 c44 48 87 87 95 87 12 0 14 -47 14 -288z m-282 174 l62 -64 0 -216
0 -216 -38 0 c-21 0 -64 5 -95 11 l-57 12 0 245 c0 239 1 246 22 269 12 13 27
23 33 23 7 0 40 -29 73 -64z m-158 -247 c0 -126 -4 -209 -10 -209 -14 0 -59
21 -122 58 l-58 33 0 82 0 82 86 87 c48 48 90 85 95 82 5 -3 9 -99 9 -215z"/>
</g>
</svg>
